<?xml version="1.0" encoding="UTF-8"?>
<svg xmlns="http://www.w3.org/2000/svg" xmlns:xlink="http://www.w3.org/1999/xlink" width="43px" height="150px" viewBox="0 0 43 150" version="1.1">
<g id="surface1">
<path style=" stroke:none;fill-rule:nonzero;fill:rgb(64.313728%,64.313728%,64.313728%);fill-opacity:1;" d="M 31.4375 6.011719 C 33.167969 4.074219 34.320312 1.589844 36.40625 0.0117188 L 38.390625 0.1875 C 38.316406 1.070312 38.390625 2.042969 37.714844 2.730469 C 23.191406 21.746094 11.148438 43.074219 5.40625 66.390625 C 4.039062 73.058594 3.144531 79.820312 3.332031 86.578125 C 3.179688 93.414062 5.21875 100.097656 8.105469 106.238281 C 10.617188 112.160156 13.601562 117.867188 17.03125 123.308594 C 20.496094 129.324219 24.335938 135.140625 28.335938 140.800781 C 29.324219 142.410156 30.523438 143.878906 31.910156 145.167969 C 34.9375 140.25 37.40625 134.992188 40.699219 130.238281 C 41.394531 130.273438 42.09375 130.324219 42.789062 130.390625 C 42.855469 131.359375 42.964844 132.394531 42.382812 133.246094 C 40.121094 137.332031 37.515625 141.246094 35.417969 145.429688 C 34.59375 146.953125 33.808594 148.539062 32.59375 149.804688 C 31.773438 150.46875 30.976562 149.378906 30.273438 149.027344 C 25.460938 145.199219 20.605469 141.207031 14.75 139.066406 C 14.703125 138.394531 14.679688 137.71875 14.667969 137.050781 C 18.015625 135.539062 20.492188 139.183594 23.710938 139.390625 C 18.316406 131.761719 13.441406 123.777344 9.117188 115.496094 C 5.394531 108.066406 1.625 100.390625 0.640625 92.039062 C 0.441406 88.023438 -0.246094 83.988281 0.476562 79.964844 C 1.042969 67.464844 5.0625 55.460938 9.644531 43.914062 C 15.464844 30.507812 22.777344 17.792969 31.4375 6.011719 Z M 31.4375 6.011719 "/>
</g>
</svg>
