<?xml version="1.0" encoding="UTF-8"?> <svg xmlns="http://www.w3.org/2000/svg" id="Layer_1" data-name="Layer 1" viewBox="0 0 75.53 266.27"><defs><style>.cls-1{fill:#a4a4a4;}</style></defs><title>стрелка 2 серая svg</title><path class="cls-1" d="M55.34,10.65C58.4,7.21,60.44,2.8,64.13,0l3.51.31c-.13,1.57,0,3.3-1.2,4.52-25.69,33.75-47,71.61-57.16,113-2.42,11.84-4,23.84-3.67,35.84-.27,12.13,3.34,24,8.45,34.9a212,212,0,0,0,15.79,30.3c6.13,10.68,12.92,21,20,31.05a36.83,36.83,0,0,0,6.32,7.75c5.36-8.73,9.73-18.06,15.55-26.5,1.23.06,2.47.15,3.7.27.12,1.72.31,3.56-.72,5.07-4,7.25-8.61,14.2-12.32,21.63-1.46,2.7-2.85,5.52-5,7.76-1.45,1.18-2.86-.75-4.1-1.38-8.52-6.79-17.11-13.88-27.47-17.68-.08-1.19-.12-2.39-.14-3.58,5.92-2.68,10.3,3.79,16,4.16A371.08,371.08,0,0,1,15.85,205c-6.59-13.19-13.26-26.81-15-41.64C.5,156.23-.72,149.07.56,141.93c1-22.19,8.11-43.5,16.22-64A347.08,347.08,0,0,1,55.34,10.65Z" transform="translate(0.01 0.02)"></path></svg> 