<?xml version="1.0" encoding="UTF-8"?> <svg xmlns="http://www.w3.org/2000/svg" id="Layer_1" data-name="Layer 1" viewBox="0 0 90.05 284.11"><defs><style>.cls-1{fill:#a4a4a4;}</style></defs><title>стрелка 1 серая svg</title><path class="cls-1" d="M1,.16c3.8-1,6.57,2.14,9.45,4,10.08,6.31,19,14.23,27.61,22.41C44.34,33.37,50.93,39.94,56,47.71c18.26,24,29.52,53.15,33.07,83.06,2.63,25.2.06,51-8.53,74.91a91,91,0,0,1-6.06,16c-7,18.07-17.21,34.7-27.89,50.81,4.93-.43,9.35-2.94,13.92-4.67,5.87-2.75,12.13-4.46,18.15-6.83a28.44,28.44,0,0,1,10.8-1.83,23.92,23.92,0,0,1,.23,4.31c-15,3-28.68,10-42.78,15.61-4.34,1.67-8.3,4.58-13,5,1.34-11.33-4-21.73-8.64-31.68q-4.68-7.73-9.84-15.15c-1.33-1.64-.09-4.67,2.21-4.15,2.53.94,3.83,3.52,5.38,5.55,6.45,10.51,13,21.26,15.54,33.51,4-2.48,6-6.92,8.69-10.62a242.09,242.09,0,0,0,19.65-35.49c3.23-8.13,7.37-15.92,9.42-24.48,6.68-20.08,10.09-41.48,8.33-62.63C82.9,112,74,85.76,60,62.76A178.13,178.13,0,0,0,2.33,5.27C.32,4.35-1,1.86,1,.16Z" transform="translate(-0.01 0.03)"></path></svg> 