<?xml version="1.0" encoding="UTF-8"?>
<svg xmlns="http://www.w3.org/2000/svg" xmlns:xlink="http://www.w3.org/1999/xlink" width="48px" height="150px" viewBox="0 0 48 151" version="1.1">
<g id="surface1">
<path style=" stroke:none;fill-rule:nonzero;fill:rgb(64.313728%,64.313728%,64.313728%);fill-opacity:1;" d="M 0.527344 0.113281 C 2.554688 -0.417969 4.03125 1.25 5.566406 2.238281 C 10.9375 5.59375 15.691406 9.800781 20.28125 14.148438 C 23.628906 17.761719 27.140625 21.253906 29.84375 25.382812 C 39.578125 38.136719 45.578125 53.625 47.472656 69.519531 C 48.875 82.910156 47.503906 96.621094 42.925781 109.324219 C 42.117188 112.253906 41.039062 115.101562 39.695312 117.828125 C 35.964844 127.429688 30.523438 136.269531 24.828125 144.828125 C 27.457031 144.601562 29.8125 143.265625 32.25 142.347656 C 35.378906 140.886719 38.714844 139.976562 41.921875 138.71875 C 43.761719 138.023438 45.714844 137.695312 47.679688 137.746094 C 47.789062 138.503906 47.832031 139.269531 47.804688 140.035156 C 39.808594 141.628906 32.515625 145.347656 25 148.332031 C 22.6875 149.21875 20.574219 150.765625 18.070312 150.988281 C 18.785156 144.964844 15.9375 139.441406 13.464844 134.152344 C 11.800781 131.414062 10.054688 128.730469 8.21875 126.101562 C 7.511719 125.230469 8.171875 123.621094 9.398438 123.898438 C 10.746094 124.394531 11.4375 125.765625 12.265625 126.847656 C 15.703125 132.429688 19.195312 138.144531 20.546875 144.652344 C 22.679688 143.335938 23.746094 140.976562 25.179688 139.007812 C 29.195312 133.027344 32.699219 126.71875 35.65625 120.152344 C 37.375 115.832031 39.582031 111.691406 40.675781 107.140625 C 44.238281 96.472656 46.054688 85.101562 45.117188 73.859375 C 44.183594 59.542969 39.4375 45.601562 31.976562 33.378906 C 24.234375 20.964844 13.710938 10.507812 1.238281 2.828125 C 0.164062 2.339844 -0.539062 1.015625 0.527344 0.113281 Z M 0.527344 0.113281 "/>
</g>
</svg>
